<svg width="5" height="19" viewBox="0 0 5 19" fill="none" xmlns="http://www.w3.org/2000/svg">
<path d="M2.50016 4.70833C2.87924 4.70833 3.24981 4.59592 3.56501 4.38532C3.8802 4.17471 4.12587 3.87537 4.27093 3.52514C4.416 3.17492 4.45396 2.78954 4.38 2.41774C4.30605 2.04595 4.1235 1.70443 3.85545 1.43638C3.5874 1.16833 3.24588 0.985784 2.87409 0.911829C2.50229 0.837874 2.11691 0.87583 1.76669 1.0209C1.41646 1.16597 1.11712 1.41163 0.906514 1.72682C0.695908 2.04202 0.583497 2.41259 0.583497 2.79167C0.583497 3.3 0.785431 3.78751 1.14488 4.14696C1.50432 4.5064 1.99183 4.70833 2.50016 4.70833ZM2.50016 14.2917C2.12108 14.2917 1.75052 14.4041 1.43532 14.6147C1.12013 14.8253 0.874462 15.1246 0.729395 15.4749C0.584327 15.8251 0.54637 16.2105 0.620325 16.5823C0.69428 16.9541 0.876826 17.2956 1.14488 17.5636C1.41293 17.8317 1.75444 18.0142 2.12624 18.0882C2.49804 18.1621 2.88342 18.1242 3.23364 17.9791C3.58387 17.834 3.88321 17.5884 4.09381 17.2732C4.30442 16.958 4.41683 16.5874 4.41683 16.2083C4.41683 15.7 4.2149 15.2125 3.85545 14.853C3.49601 14.4936 3.0085 14.2917 2.50016 14.2917ZM2.50016 7.58333C2.12108 7.58333 1.75052 7.69574 1.43532 7.90635C1.12013 8.11696 0.874462 8.4163 0.729395 8.76652C0.584327 9.11675 0.54637 9.50213 0.620325 9.87392C0.69428 10.2457 0.876826 10.5872 1.14488 10.8553C1.41293 11.1233 1.75444 11.3059 2.12624 11.3798C2.49804 11.4538 2.88342 11.4158 3.23364 11.2708C3.58387 11.1257 3.88321 10.88 4.09381 10.5648C4.30442 10.2496 4.41683 9.87908 4.41683 9.5C4.41683 8.99167 4.2149 8.50416 3.85545 8.14471C3.49601 7.78527 3.0085 7.58333 2.50016 7.58333Z" fill="black" fill-opacity="0.4"/>
</svg>
