<svg width="9" height="18" viewBox="0 0 9 18" fill="none" xmlns="http://www.w3.org/2000/svg">
<path d="M7.375 5.06244V12.9974C7.375 14.5649 6.2275 15.9599 4.6675 16.1099C4.25076 16.1516 3.82992 16.1053 3.43216 15.9742C3.0344 15.8431 2.66856 15.63 2.35828 15.3487C2.048 15.0674 1.80017 14.7241 1.6308 14.3411C1.46143 13.9581 1.37429 13.5438 1.375 13.1249V3.85494C1.375 2.87244 2.08 1.97994 3.055 1.88244C3.31648 1.85509 3.58078 1.88305 3.83075 1.96448C4.08072 2.0459 4.31078 2.17899 4.50598 2.3551C4.70118 2.5312 4.85717 2.74639 4.96381 2.98669C5.07046 3.22699 5.12537 3.48704 5.125 3.74994V11.6249C5.125 12.0374 4.7875 12.3749 4.375 12.3749C3.9625 12.3749 3.625 12.0374 3.625 11.6249V5.06244C3.625 4.75494 3.37 4.49994 3.0625 4.49994C2.755 4.49994 2.5 4.75494 2.5 5.06244V11.5199C2.5 12.5024 3.205 13.3949 4.18 13.4924C4.44148 13.5198 4.70578 13.4918 4.95575 13.4104C5.20572 13.329 5.43578 13.1959 5.63098 13.0198C5.82618 12.8437 5.98217 12.6285 6.08881 12.3882C6.19546 12.1479 6.25037 11.8878 6.25 11.6249V3.87744C6.25 2.30994 5.1025 0.914937 3.5425 0.764937C3.12588 0.723889 2.70527 0.770538 2.30777 0.90188C1.91026 1.03322 1.54467 1.24635 1.23451 1.52753C0.924362 1.80872 0.676527 2.15174 0.506964 2.5345C0.337401 2.91727 0.249868 3.3313 0.25 3.74994V12.9524C0.25 15.1049 1.825 17.0324 3.97 17.2349C6.4375 17.4599 8.5 15.5399 8.5 13.1249V5.06244C8.5 4.75494 8.245 4.49994 7.9375 4.49994C7.63 4.49994 7.375 4.75494 7.375 5.06244Z" fill="#5A91EE"/>
</svg>
