<svg width="35" height="34" viewBox="0 0 35 34" fill="none" xmlns="http://www.w3.org/2000/svg">
<rect width="35" height="34" rx="17" fill="#00B900"/>
<path fill-rule="evenodd" clip-rule="evenodd" d="M29.1666 16.1511C29.1666 11.0798 23.9331 6.95398 17.4998 6.95398C11.0674 6.95398 5.83325 11.0798 5.83325 16.1511C5.83325 20.6975 9.98378 24.505 15.5903 25.225C15.9703 25.3045 16.4873 25.4683 16.6182 25.7838C16.7358 26.0704 16.6951 26.5192 16.6557 26.8086C16.6557 26.8086 16.5189 27.6084 16.4894 27.7787L16.4848 27.8039C16.4294 28.1108 16.2897 28.8851 17.4998 28.3896C18.7451 27.8799 24.2187 24.5465 26.6664 21.8097H26.6659C28.3567 20.0086 29.1666 18.1807 29.1666 16.1511ZM15.1295 13.7004H14.3111C14.1856 13.7004 14.0837 13.7993 14.0837 13.9207V18.8591C14.0837 18.9808 14.1856 19.0794 14.3111 19.0794H15.1295C15.2549 19.0794 15.3567 18.9808 15.3567 18.8591V13.9207C15.3567 13.7993 15.2549 13.7004 15.1295 13.7004ZM19.9438 13.7004H20.7621C20.8878 13.7004 20.9893 13.7993 20.9893 13.9207V18.8591C20.9893 18.9808 20.8878 19.0794 20.7621 19.0794H19.9438C19.9236 19.0794 19.9042 19.0766 19.8856 19.0718L19.8845 19.0715C19.8838 19.0713 19.883 19.0711 19.8823 19.0711L19.8734 19.0684L19.8668 19.0661C19.8646 19.0655 19.8624 19.0646 19.8601 19.0638L19.8489 19.0592L19.8427 19.0564L19.8382 19.054L19.8366 19.0532L19.8317 19.0507L19.8176 19.0425L19.8154 19.0407C19.7937 19.0264 19.7738 19.0084 19.7577 18.9862L17.4252 15.9261V18.8591C17.4252 18.9808 17.3235 19.0794 17.1978 19.0794H16.3797C16.2542 19.0794 16.1522 18.9808 16.1522 18.8591V13.9207C16.1522 13.7993 16.2542 13.7004 16.3797 13.7004H17.1978C17.2007 13.7004 17.2029 13.7009 17.2058 13.7009L17.2097 13.701L17.2112 13.7011L17.2174 13.7015L17.2205 13.7018C17.2235 13.7021 17.2265 13.7024 17.2295 13.7031L17.2338 13.7035L17.2391 13.7041L17.2521 13.707L17.2559 13.708L17.2599 13.7091C17.2646 13.7102 17.2691 13.7117 17.2736 13.7133L17.281 13.7159L17.2858 13.7177L17.2939 13.7213L17.2939 13.7213L17.2974 13.7228L17.3011 13.7246L17.3068 13.7276L17.3132 13.7313C17.3156 13.7324 17.3179 13.7337 17.3201 13.7352C17.3241 13.7376 17.3279 13.7404 17.332 13.743L17.3336 13.7442C17.335 13.7453 17.3365 13.7463 17.3378 13.7476C17.342 13.7506 17.346 13.7539 17.3499 13.7574L17.3541 13.7611L17.3606 13.7672L17.3677 13.7747L17.3693 13.7761C17.3756 13.7832 17.3816 13.7906 17.387 13.7984L19.7165 16.8546V13.9207C19.7165 13.7993 19.8183 13.7004 19.9438 13.7004ZM13.1568 17.8429H10.9333V13.9211C10.9333 13.7992 10.8315 13.7003 10.7063 13.7003H9.88771C9.76225 13.7003 9.66048 13.7992 9.66048 13.9211V18.8586V18.859C9.66048 18.9183 9.68486 18.972 9.724 19.0115L9.72401 19.0115C9.7249 19.0126 9.7258 19.0137 9.72713 19.0148L9.73049 19.0178C9.77142 19.056 9.82643 19.0795 9.88749 19.0795H9.88771H13.1568C13.2823 19.0795 13.3836 18.9804 13.3836 18.8586V18.0636C13.3836 17.9417 13.2823 17.8429 13.1568 17.8429ZM25.508 14.7162C25.508 14.8383 25.4067 14.937 25.2813 14.937H23.0579V15.7715H25.2813C25.4067 15.7715 25.508 15.8705 25.508 15.9924V16.7874C25.508 16.9093 25.4067 17.0081 25.2813 17.0081H23.0579V17.8428H25.2813C25.4067 17.8428 25.508 17.9419 25.508 18.0636V18.8588C25.508 18.9804 25.4067 19.0795 25.2813 19.0795H22.0122H22.0117C21.9509 19.0795 21.8956 19.0558 21.8549 19.0178C21.8538 19.0169 21.8525 19.0158 21.8516 19.0147C21.8505 19.0139 21.8493 19.0126 21.8484 19.0115C21.8093 18.9719 21.7849 18.9183 21.7849 18.859V18.8588V13.9213V13.9211C21.7849 13.862 21.8091 13.8085 21.848 13.769L21.8516 13.7651C21.8522 13.7642 21.8534 13.7635 21.8543 13.7627C21.8952 13.7242 21.9504 13.7003 22.0117 13.7003H22.0122H25.2813C25.4067 13.7003 25.508 13.7994 25.508 13.9213V14.7162Z" fill="white"/>
</svg>
