<svg width="23" height="20" viewBox="0 0 23 20" fill="none" xmlns="http://www.w3.org/2000/svg">
<path d="M1 11.8V2C1 1.44772 1.44772 1 2 1H21C21.5523 1 22 1.44771 22 2V16.9429M1 11.8V18C1 18.5523 1.44772 19 2 19H21C21.5523 19 22 18.5523 22 18V16.9429M1 11.8L5.02522 7.85693C5.41401 7.47607 6.03599 7.47607 6.42478 7.85693L11.9109 13.2311C12.2748 13.5875 12.8485 13.6135 13.2431 13.2914L15.0366 11.8272C15.4185 11.5156 15.9704 11.5285 16.3371 11.8578L22 16.9429" stroke="#898A8D" stroke-width="1.5"/>
</svg>
