<svg width="19" height="18" viewBox="0 0 19 18" fill="none" xmlns="http://www.w3.org/2000/svg">
<path d="M13.1946 11.234H12.4202L12.1457 10.9693C13.1064 9.85174 13.6848 8.4009 13.6848 6.82262C13.6848 3.30335 10.8321 0.450684 7.31286 0.450684C3.79359 0.450684 0.940918 3.30335 0.940918 6.82262C0.940918 10.3419 3.79359 13.1946 7.31286 13.1946C8.89114 13.1946 10.342 12.6162 11.4595 11.6555L11.7242 11.93V12.7044L16.6257 17.5961L18.0863 16.1355L13.1946 11.234ZM7.31286 11.234C4.87191 11.234 2.90151 9.26356 2.90151 6.82262C2.90151 4.38168 4.87191 2.41128 7.31286 2.41128C9.7538 2.41128 11.7242 4.38168 11.7242 6.82262C11.7242 9.26356 9.7538 11.234 7.31286 11.234Z" fill="black" fill-opacity="0.4"/>
</svg>
