<svg width="207" height="129" viewBox="0 0 207 129" fill="none" xmlns="http://www.w3.org/2000/svg">
<path d="M125.171 31.6692L139.739 22.1684L120.104 1.26685L115.037 7.60064L113.137 19.0015L125.171 31.6692Z" fill="#DCECFF"/>
<path d="M117.571 3.06908L120.104 1.26685M120.104 1.26685L139.739 22.1684L125.171 31.6692L113.137 19.0015L115.037 7.60064L120.104 1.26685Z" stroke="#9BC9FF" stroke-width="2" stroke-linecap="round" stroke-linejoin="round"/>
<mask id="path-3-inside-1_11_1587" fill="white">
<path fill-rule="evenodd" clip-rule="evenodd" d="M120.141 0H70C67.2386 0 65 2.23857 65 5V97.6079C65 100.369 67.2386 102.608 70 102.608H136.006C138.767 102.608 141.006 100.369 141.006 97.6079V22.1002H125.141C122.38 22.1002 120.141 19.8616 120.141 17.1002V0Z"/>
</mask>
<path fill-rule="evenodd" clip-rule="evenodd" d="M120.141 0H70C67.2386 0 65 2.23857 65 5V97.6079C65 100.369 67.2386 102.608 70 102.608H136.006C138.767 102.608 141.006 100.369 141.006 97.6079V22.1002H125.141C122.38 22.1002 120.141 19.8616 120.141 17.1002V0Z" fill="white"/>
<path d="M120.141 0H122.141C122.141 -1.10457 121.246 -2 120.141 -2V0ZM141.006 22.1002H143.006C143.006 20.9956 142.11 20.1002 141.006 20.1002V22.1002ZM70 2H120.141V-2H70V2ZM67 5C67 3.34314 68.3431 2 70 2V-2C66.134 -2 63 1.134 63 5H67ZM67 97.6079V5H63V97.6079H67ZM70 100.608C68.3431 100.608 67 99.2647 67 97.6079H63C63 101.474 66.134 104.608 70 104.608V100.608ZM136.006 100.608H70V104.608H136.006V100.608ZM139.006 97.6079C139.006 99.2647 137.663 100.608 136.006 100.608V104.608C139.872 104.608 143.006 101.474 143.006 97.6079H139.006ZM139.006 22.1002V97.6079H143.006V22.1002H139.006ZM141.006 20.1002H125.141V24.1002H141.006V20.1002ZM125.141 20.1002C123.484 20.1002 122.141 18.757 122.141 17.1002H118.141C118.141 20.9662 121.275 24.1002 125.141 24.1002V20.1002ZM122.141 17.1002V0H118.141V17.1002H122.141Z" fill="#9BC9FF" mask="url(#path-3-inside-1_11_1587)"/>
<line x1="77.1509" y1="10.6509" x2="94.6523" y2="10.6509" stroke="#CFE4FD" stroke-width="1.5" stroke-linecap="round"/>
<line x1="77.1509" y1="20.7849" x2="108.587" y2="20.7849" stroke="#CFE4FD" stroke-width="1.5" stroke-linecap="round"/>
<line x1="77.1509" y1="30.9192" x2="128.855" y2="30.9192" stroke="#CFE4FD" stroke-width="1.5" stroke-linecap="round"/>
<line x1="77.1509" y1="43.25" x2="128.855" y2="43.25" stroke="#CFE4FD" stroke-width="1.5" stroke-linecap="round"/>
<line x1="77.1509" y1="54.25" x2="128.855" y2="54.25" stroke="#CFE4FD" stroke-width="1.5" stroke-linecap="round"/>
<line x1="77.1509" y1="66.25" x2="128.855" y2="66.25" stroke="#CFE4FD" stroke-width="1.5" stroke-linecap="round"/>
<ellipse cx="103.33" cy="125.111" rx="30.3299" ry="3.10192" fill="#CFE4FD"/>
<ellipse cx="103.33" cy="125.111" rx="30.3299" ry="3.10192" fill="white" fill-opacity="0.35"/>
<circle cx="169.88" cy="4.36877" r="3.10192" fill="#E0EDFE"/>
<circle cx="21.713" cy="102.364" r="4.48055" fill="#CFE4FD"/>
<circle cx="4.1359" cy="49.6313" r="3.6359" stroke="#E5F1FF"/>
<circle cx="180.216" cy="116.878" r="3.6359" stroke="#E5F1FF"/>
<path d="M34.1375 0.363671L31.2198 3.2814C30.2474 2.30924 29.2745 1.33614 28.3019 0.363671C27.1767 -0.761489 25.4326 0.983215 26.5568 2.10869C27.5296 3.08053 28.5028 4.05379 29.4745 5.02626C28.5023 5.99917 27.5298 6.9717 26.5568 7.94383C25.4326 9.06867 27.1769 10.8129 28.3019 9.68884C29.2744 8.71606 30.2472 7.74312 31.2197 6.77096L34.1373 9.68884C35.2625 10.8137 37.0071 9.06883 35.8824 7.94383C34.9096 6.97104 33.9371 5.99857 32.964 5.02594C33.9369 4.05316 34.9094 3.08037 35.8824 2.10775C37.0073 0.983215 35.2628 -0.762117 34.1375 0.363671Z" fill="#E0EDFE"/>
<path d="M204.704 68.3442L200.58 68.4462C200.545 67.0715 200.512 65.696 200.477 64.321C200.438 62.7303 197.972 62.7916 198.01 64.3819C198.045 65.7566 198.079 67.1325 198.112 68.5068C196.737 68.5413 195.362 68.5753 193.987 68.6087C192.398 68.6484 192.459 71.1144 194.048 71.0758C195.424 71.0416 196.799 71.0075 198.174 70.9738L198.275 75.0989C198.315 76.6894 200.782 76.6282 200.742 75.0379C200.708 73.6626 200.675 72.2877 200.64 70.9123C202.016 70.8784 203.391 70.8443 204.766 70.8105C206.356 70.7715 206.296 68.3046 204.704 68.3442Z" fill="#E5EFFD"/>
<path d="M119.002 90.9992C118.957 89.241 121.005 88.2491 122.356 89.3748L138.134 102.516C139.557 103.701 138.799 106.015 136.951 106.129L129.662 106.579C128.608 106.644 127.637 107.175 127.015 108.028L123.241 113.203C122.09 114.781 119.593 114.002 119.543 112.05L119.002 90.9992Z" fill="#DCECFF" stroke="#9BC9FF" stroke-width="1.5"/>
<path fill-rule="evenodd" clip-rule="evenodd" d="M105.124 79.931C105.527 79.1833 106.459 78.9035 107.207 79.3061L111.768 81.7621C112.516 82.1647 112.795 83.0972 112.393 83.8449C111.99 84.5926 111.058 84.8724 110.31 84.4698L105.749 82.0138C105.001 81.6112 104.721 80.6787 105.124 79.931Z" fill="#CFE4FD"/>
<path fill-rule="evenodd" clip-rule="evenodd" d="M118.094 73.0187C118.943 73.0084 119.639 73.6884 119.65 74.5375L119.713 79.7174C119.723 80.5665 119.043 81.2633 118.194 81.2736C117.345 81.284 116.648 80.604 116.638 79.7548L116.575 74.575C116.564 73.7258 117.244 73.0291 118.094 73.0187Z" fill="#CFE4FD"/>
<path fill-rule="evenodd" clip-rule="evenodd" d="M103.719 93.1852C103.322 92.4346 103.608 91.5042 104.359 91.107L108.938 88.6839C109.688 88.2867 110.619 88.5732 111.016 89.3238C111.413 90.0744 111.127 91.0048 110.376 91.402L105.797 93.8251C105.047 94.2223 104.116 93.9358 103.719 93.1852Z" fill="#CFE4FD"/>
<path fill-rule="evenodd" clip-rule="evenodd" d="M124.783 83.0885C124.386 82.338 124.672 81.4075 125.423 81.0103L130.002 78.5873C130.752 78.1901 131.683 78.4765 132.08 79.2271C132.477 79.9777 132.191 80.9082 131.44 81.3054L126.861 83.7284C126.111 84.1256 125.18 83.8391 124.783 83.0885Z" fill="#CFE4FD"/>
</svg>
